<?xml version="1.0" encoding="UTF-8" standalone="no"?><svg xmlns="http://www.w3.org/2000/svg" xmlns:xlink="http://www.w3.org/1999/xlink" contentScriptType="application/ecmascript" contentStyleType="text/css" height="708px" preserveAspectRatio="none" style="width:567px;height:708px;" version="1.1" viewBox="0 0 567 708" width="567px" zoomAndPan="magnify"><defs><filter height="300%" id="f1e7wo04pcc43a" width="300%" x="-1" y="-1"><feGaussianBlur result="blurOut" stdDeviation="2.0"/><feColorMatrix in="blurOut" result="blurOut2" type="matrix" values="0 0 0 0 0 0 0 0 0 0 0 0 0 0 0 0 0 0 .4 0"/><feOffset dx="4.0" dy="4.0" in="blurOut2" result="blurOut3"/><feBlend in="SourceGraphic" in2="blurOut3" mode="normal"/></filter></defs><g><!--cluster internet--><path d="M34.1076,573.2373 C42.166,556.9262 57.3151,557.6071 66.1837,572.4018 C71.8564,557.0804 81.2954,557.4169 92.0648,567.1337 C101.4242,548.4829 117.7418,548.7099 128.0644,566.1736 C136.1175,552.2105 148.6832,550.4764 157.3219,565.5843 C166.7752,549.8491 180.7113,549.2684 188.9021,566.7835 C195.8451,550.3046 206.4314,551.6252 217.1534,562.9427 C227.336,545.0993 244.0136,546.917 254.0484,563.1029 C262.4729,550.8664 273.0935,550.3388 282.3126,562.17 C296.1353,549.737 306.9724,550.3082 316.3878,567.2777 C325.598,554.5388 335.0465,553.1982 345.9812,565.2162 C356.6781,553.0663 369.7282,552.206 377.1087,568.8067 C385.9698,552.9782 400.0352,556.183 406.8989,570.7635 C415.2264,552.4998 429.1734,553.8978 439.5725,568.7175 C455.5564,555.3243 466.7422,557.3457 475,577 C479.01,575.5713 481.1761,578.0231 480.1923,581.8933 C498.5146,593.3844 502.8159,608.511 483.713,623.1925 C497.6475,645.5563 497.2549,662.1347 468,670 C471.1087,668.8137 472.8317,669.8034 472.6396,673.2825 C464.6733,689.1018 452.5585,691.1599 441.4817,676.4578 C431.2159,690.8947 417.8103,691.8049 409.7814,674.2418 C398.0497,691.5059 385.6758,692.1173 374.4569,673.7336 C366.6916,684.6033 355.0789,684.7238 347.4021,673.6246 C341.3901,689.6451 329.0513,692.397 317.0678,679.9986 C305.4617,695.2221 288.7506,695.7262 281.071,675.9592 C273.0111,690.8634 263.5188,691.6144 251.6709,680.189 C240.1038,695.1218 229.0007,694.1149 220.2455,677.3971 C212.7084,692.4267 200.6957,692.7504 190.8272,679.8529 C181.7767,695.7427 165.1096,696.2131 156.7832,679.1058 C144.9537,691.5582 135.0534,691.7415 126.5014,675.6311 C115.63,689.6142 104.6596,689.9285 93.3408,676.1658 C84.307,688.8223 72.5908,691.0112 63.1933,676.5704 C45.7765,693.4368 25.6724,687.8549 22,663 C23.7469,663.0315 24.2491,664.4151 23.4343,665.7721 C2.5433,654.5203 0.7778,638.1474 22.0578,625.4557 C-5.914,604.1099 -1.4657,584.0303 29,570 C32.0033,568.6739 34.2161,569.6539 34.1076,573.2373 " fill="#FFFFFF" style="stroke: #000000; stroke-width: 1.5;"/><text fill="#000000" font-family="sans-serif" font-size="14" font-weight="bold" lengthAdjust="spacingAndGlyphs" textLength="57" x="220" y="588.5352">internet</text><!--cluster cloud_provider--><path d="M301.1894,597.5185 C304.7682,591.1407 309.6357,590.7955 314.199,596.4544 C318.7537,591.3271 322.2961,591.6534 325.6455,597.6902 C328.9453,592.3512 332.8064,591.3157 336.847,596.9329 C340.3922,590.7557 344.8005,590.0525 349.9437,595.0621 C353.8363,589.4347 357.4785,590.2898 361.0562,595.3883 C363.5325,589.4163 369.8971,589.1059 373.7106,593.8021 C376.7858,588.375 380.8646,588.0454 384.2714,593.4797 C388.3011,588.3873 392.4081,588.1724 396.5141,593.389 C400.6901,587.1267 406.6254,588.0547 409.2842,594.8706 C413.512,589.589 417.4665,588.5459 421.3915,595.1784 C425.8075,590.9267 430.2988,590.6868 433.1706,596.9143 C436.4086,591.6673 440.4037,591.2585 444.2648,596.2384 C448.7583,590.9394 454.4184,591.6048 456.8662,598.3744 C460.3112,591.8173 465.3138,592.6631 469.0723,598.0541 C477.4217,602.6663 476.3344,608.2029 469.6318,613.3651 C478.2509,618.4271 479.4022,625.96 469.9927,631.383 C476.1391,635.71 476.2908,642.151 469.664,646.1945 C477.7764,651.2414 478.5113,658.6852 469.1426,663.196 C465.56,668.3467 461.3746,669.0827 457.3257,663.7201 C454.7583,670.0447 448.4307,671.3217 444.2973,665.384 C441.5998,671.2114 435.8199,672.609 432.0733,666.4543 C430.2095,671.6167 425.2173,672.7036 421.5722,668.4386 C418.2266,675.132 412.639,675.5944 407.8296,670.0874 C405.4714,675.7941 400.4265,676.802 396.685,671.4858 C393.9216,676.7875 388.5779,676.8972 385.1918,672.2016 C381.3053,678.906 375.7937,678.4785 372.4593,671.6809 C369.13,676.5973 363.7986,676.1084 361.1692,670.9003 C356.2311,675.7215 351.4076,674.7322 348.8299,668.3099 C344.2394,672.6197 340.5263,673.8806 337.0992,667.0814 C332.2667,673.0683 327.8024,670.7319 324.8126,665.1281 C321.2289,670.2785 316.0571,669.2231 313.732,663.8082 C310.0248,668.2471 304.3725,667.8869 302.1672,662.1083 C293.2096,659.0926 292.1973,652.7958 299.0153,646.5783 C291.1089,643.6978 290.3164,636.2372 296.0006,630.7656 C289.9777,624.8001 289.0675,616.3127 299.3481,613.51 C292.3183,608.4744 292.2153,600.7113 301.1894,597.5185 " fill="#FFFFFF" style="stroke: #000000; stroke-width: 1.5;"/><text fill="#000000" font-family="sans-serif" font-size="14" font-weight="bold" lengthAdjust="spacingAndGlyphs" textLength="106" x="331" y="615.5352">cloud_provider</text><!--cluster private_network--><rect fill="#FFFFFF" filter="url(#f1e7wo04pcc43a)" height="453" style="stroke: #000000; stroke-width: 1.5;" width="280" x="194" y="16"/><path d="M320,17 L320,25.4883 L310,35.4883 L194,35.4883 " fill="none" style="stroke: #000000; stroke-width: 1.5;"/><text fill="#000000" font-family="sans-serif" font-size="14" font-weight="bold" lengthAdjust="spacingAndGlyphs" textLength="116" x="197" y="30.5352">private_network</text><!--cluster local_machine--><polygon fill="#FFFFFF" filter="url(#f1e7wo04pcc43a)" points="279,53,289,43,466,43,466,109,456,119,279,119,279,53" style="stroke: #000000; stroke-width: 1.5;"/><line style="stroke: #000000; stroke-width: 1.5;" x1="456" x2="465" y1="53" y2="44"/><line style="stroke: #000000; stroke-width: 1.5;" x1="279" x2="456" y1="53" y2="53"/><line style="stroke: #000000; stroke-width: 1.5;" x1="456" x2="456" y1="53" y2="119"/><text fill="#000000" font-family="sans-serif" font-size="14" font-weight="bold" lengthAdjust="spacingAndGlyphs" textLength="101" x="318" y="69.5352">local_machine</text><!--entity acme_ca--><rect fill="#FEFECE" filter="url(#f1e7wo04pcc43a)" height="36.4883" style="stroke: #A80036; stroke-width: 1.5;" width="78" x="153" y="621"/><rect fill="#FEFECE" height="5" style="stroke: #A80036; stroke-width: 1.5;" width="10" x="148" y="626"/><rect fill="#FEFECE" height="5" style="stroke: #A80036; stroke-width: 1.5;" width="10" x="148" y="647.4883"/><text fill="#000000" font-family="sans-serif" font-size="14" lengthAdjust="spacingAndGlyphs" textLength="58" x="163" y="644.5352">acme_ca</text><!--entity global_dns--><rect fill="#FEFECE" filter="url(#f1e7wo04pcc43a)" height="36.4883" style="stroke: #A80036; stroke-width: 1.5;" width="95" x="22.5" y="621"/><rect fill="#FEFECE" height="5" style="stroke: #A80036; stroke-width: 1.5;" width="10" x="17.5" y="626"/><rect fill="#FEFECE" height="5" style="stroke: #A80036; stroke-width: 1.5;" width="10" x="17.5" y="647.4883"/><text fill="#000000" font-family="sans-serif" font-size="14" lengthAdjust="spacingAndGlyphs" textLength="75" x="32.5" y="644.5352">global_dns</text><!--entity public_acmeproxy--><polygon fill="#FEFECE" filter="url(#f1e7wo04pcc43a)" points="301.5,626,311.5,616,466.5,616,466.5,652.4883,456.5,662.4883,301.5,662.4883,301.5,626" style="stroke: #000000; stroke-width: 1.5;"/><line style="stroke: #000000; stroke-width: 1.5;" x1="456.5" x2="465.5" y1="626" y2="617"/><line style="stroke: #000000; stroke-width: 1.5;" x1="301.5" x2="456.5" y1="626" y2="626"/><line style="stroke: #000000; stroke-width: 1.5;" x1="456.5" x2="456.5" y1="626" y2="662.4883"/><text fill="#000000" font-family="sans-serif" font-size="14" lengthAdjust="spacingAndGlyphs" textLength="125" x="316.5" y="649.5352">public_acmeproxy</text><!--entity firewall--><rect fill="#FEFECE" filter="url(#f1e7wo04pcc43a)" height="36.4883" style="stroke: #A80036; stroke-width: 1.5;" width="70" x="231" y="425"/><rect fill="#FEFECE" height="5" style="stroke: #A80036; stroke-width: 1.5;" width="10" x="226" y="430"/><rect fill="#FEFECE" height="5" style="stroke: #A80036; stroke-width: 1.5;" width="10" x="226" y="451.4883"/><text fill="#000000" font-family="sans-serif" font-size="14" lengthAdjust="spacingAndGlyphs" textLength="50" x="241" y="448.5352">firewall</text><!--entity local_dns--><rect fill="#FEFECE" filter="url(#f1e7wo04pcc43a)" height="36.4883" style="stroke: #A80036; stroke-width: 1.5;" width="84" x="369" y="250"/><rect fill="#FEFECE" height="5" style="stroke: #A80036; stroke-width: 1.5;" width="10" x="364" y="255"/><rect fill="#FEFECE" height="5" style="stroke: #A80036; stroke-width: 1.5;" width="10" x="364" y="276.4883"/><text fill="#000000" font-family="sans-serif" font-size="14" lengthAdjust="spacingAndGlyphs" textLength="64" x="379" y="273.5352">local_dns</text><!--entity user--><rect fill="#FEFECE" filter="url(#f1e7wo04pcc43a)" height="36.4883" style="stroke: #A80036; stroke-width: 1.5;" width="50" x="202" y="75"/><text fill="#000000" font-family="sans-serif" font-size="14" lengthAdjust="spacingAndGlyphs" textLength="30" x="212" y="98.5352">user</text><!--entity local_acmeproxy--><rect fill="#FEFECE" filter="url(#f1e7wo04pcc43a)" height="36.4883" style="stroke: #A80036; stroke-width: 1.5;" width="135" x="287.5" y="75"/><rect fill="#FEFECE" height="5" style="stroke: #A80036; stroke-width: 1.5;" width="10" x="282.5" y="80"/><rect fill="#FEFECE" height="5" style="stroke: #A80036; stroke-width: 1.5;" width="10" x="282.5" y="101.4883"/><text fill="#000000" font-family="sans-serif" font-size="14" lengthAdjust="spacingAndGlyphs" textLength="115" x="297.5" y="98.5352">local_acmeproxy</text><!--link local_machine to local_dns--><path d="M450.9552,119.2306 C450.9031,119.4245 450.8508,119.6192 450.7983,119.8147 C450.3783,121.3787 449.9446,122.9936 449.4984,124.6547 C448.6062,127.9769 447.6644,131.4836 446.6834,135.1361 C444.7215,142.441 442.6031,150.329 440.4112,158.4902 C431.6437,191.135 421.7023,228.1511 415.9134,249.7056 " fill="none" id="local_machine-local_dns" style="stroke: #A80036; stroke-width: 1.0;"/><text fill="#000000" font-family="sans-serif" font-size="13" lengthAdjust="spacingAndGlyphs" textLength="118" x="437" y="185.5684">resovle hostnames</text><!--link local_machine to firewall--><path d="M440,119 C369.1385,190.6168 301.2845,160.5122 255,250 C225.0116,307.9806 246.9412,389.2659 259.2084,424.9748 " fill="none" id="local_machine-firewall" style="stroke: #A80036; stroke-width: 1.0;"/><text fill="#000000" font-family="sans-serif" font-size="13" lengthAdjust="spacingAndGlyphs" textLength="95" x="256" y="273.0684">access internet</text><!--link local_dns to firewall--><path d="M396.0286,286.0689 C368.2432,319.6031 308.9948,391.1097 281.1072,424.7672 " fill="none" id="local_dns-firewall" style="stroke: #A80036; stroke-width: 1.0;"/><text fill="#000000" font-family="sans-serif" font-size="13" lengthAdjust="spacingAndGlyphs" textLength="189" x="346" y="360.5684">resolve upstream DNS queries</text><!--link firewall to internet--><path d="M266,461.0879 C266,472.8392 266,489.3339 266,507.585 C266,516.7106 266,526.2754 266,535.9059 C266,540.7211 266,545.5528 266,550.3543 C266,552.755 266,555.1482 266,557.528 C266,558.7179 266,559.9044 266,561.0869 C266,561.3825 266,561.6779 266,561.973 " fill="none" id="firewall-internet" style="stroke: #A80036; stroke-width: 1.0;"/><!--
@startuml

cloud internet {
    component acme_ca
    component global_dns
    cloud cloud_provider {
        node public_acmeproxy
    }
}

frame private_network {
    component firewall
    component local_dns
    node local_machine  {
        component local_acmeproxy
    }
    agent user
}

local_machine - - local_dns: resovle hostnames
local_machine - - firewall: access internet
local_dns - - firewall: resolve upstream DNS queries
firewall - - - internet

@enduml

PlantUML version 1.2019.06(Fri May 24 19:10:25 CEST 2019)
(GPL source distribution)
Java Runtime: OpenJDK Runtime Environment
JVM: OpenJDK 64-Bit Server VM
Java Version: 11+28
Operating System: Mac OS X
OS Version: 10.14.5
Default Encoding: UTF-8
Language: en
Country: DE
--></g></svg>